<?xml version="1.0" standalone="no"?>
<!DOCTYPE svg PUBLIC "-//W3C//DTD SVG 20010904//EN"
 "http://www.w3.org/TR/2001/REC-SVG-20010904/DTD/svg10.dtd">
<svg version="1.0" xmlns="http://www.w3.org/2000/svg"
 width="700.000000pt" height="700.000000pt" viewBox="0 0 700.000000 700.000000"
 preserveAspectRatio="xMidYMid meet">
<metadata>
Created by potrace 1.11, written by Peter Selinger 2001-2013
</metadata>
<g transform="translate(0.000000,700.000000) scale(0.100000,-0.100000)"
fill="#000000" stroke="none">
<path d="M2514 6878 c-68 -68 -129 -128 -136 -135 -7 -7 -90 -89 -183 -183
-100 -99 -201 -191 -245 -220 -41 -28 -95 -66 -120 -85 -25 -19 -55 -39 -67
-45 -26 -11 -29 -20 -11 -38 9 -9 6 -18 -13 -39 -14 -16 -62 -69 -107 -119
-53 -59 -92 -94 -109 -98 -16 -3 -48 -24 -72 -45 -36 -32 -42 -42 -33 -54 10
-11 6 -22 -19 -53 -52 -66 -191 -205 -220 -220 -32 -16 -73 -68 -84 -104 -8
-30 -121 -147 -226 -235 -77 -65 -230 -165 -253 -165 -7 0 -21 -6 -31 -14 -18
-13 -18 -14 3 -31 21 -18 20 -19 -96 -142 -71 -77 -138 -137 -174 -159 -32
-20 -66 -47 -74 -60 -9 -13 -20 -22 -24 -19 -5 3 -6 -4 -3 -14 3 -11 -3 -27
-14 -38 -24 -24 -83 -153 -83 -182 0 -49 47 -120 183 -276 40 -46 87 -130 87
-155 0 -9 -11 -22 -24 -28 -56 -25 -78 -114 -56 -224 16 -84 42 -131 109 -204
62 -66 101 -137 101 -182 0 -32 -10 -39 -102 -72 -55 -20 -98 -58 -98 -85 0
-13 -81 -113 -176 -218 -29 -32 -65 -83 -80 -112 -16 -30 -37 -56 -46 -58 -10
-3 -18 -11 -18 -19 0 -14 150 -171 443 -464 92 -92 136 -143 129 -148 -18 -11
-5 -26 21 -26 15 0 56 -33 121 -99 80 -80 98 -103 93 -121 -9 -35 1 -51 23
-38 16 10 27 4 77 -42 32 -29 99 -96 150 -149 71 -75 90 -101 86 -117 -6 -26
12 -40 31 -25 11 9 45 -22 162 -146 82 -86 197 -205 255 -263 58 -58 109 -116
114 -129 5 -18 12 -21 31 -17 21 6 39 -8 122 -88 53 -52 129 -132 167 -177 39
-45 103 -115 143 -157 97 -99 143 -157 140 -173 -2 -7 5 -15 15 -17 10 -2 59
-46 110 -99 74 -76 131 -126 195 -169 2 -1 -2 -11 -9 -22 -10 -17 -10 -23 0
-36 30 -36 130 -1 184 66 18 21 65 78 105 126 41 48 92 117 114 154 44 75 82
182 74 213 -17 66 47 57 180 -24 81 -49 112 -62 169 -71 80 -13 137 -7 202 21
106 45 186 14 341 -135 57 -56 107 -108 111 -117 3 -9 58 -71 122 -137 l116
-121 194 196 c349 352 477 474 539 514 51 33 61 44 58 64 -2 19 19 50 92 136
116 135 144 158 174 139 19 -12 20 -12 8 3 -11 13 -10 16 8 22 17 5 20 12 16
31 -6 21 11 43 126 158 100 100 147 140 191 161 58 28 70 47 40 63 -15 9 -14
13 11 43 80 98 194 202 254 231 34 17 65 35 68 40 4 5 -4 20 -17 34 l-23 24
54 55 c30 30 70 62 89 71 20 10 48 26 63 37 22 17 30 18 42 7 21 -17 46 -6 46
21 0 22 8 33 123 169 40 47 87 105 106 128 24 31 37 40 44 33 6 -6 19 -11 29
-11 14 0 18 8 18 33 0 24 8 41 31 63 17 16 41 50 54 75 13 25 68 98 123 163
l100 118 -26 38 c-39 54 -306 344 -337 364 -17 11 -25 25 -25 46 0 25 -7 33
-48 54 -81 41 -81 43 -6 137 114 144 120 168 100 394 -15 159 22 254 144 376
80 80 130 161 130 210 0 15 -16 48 -35 75 -20 27 -49 69 -65 94 -17 24 -49 57
-73 73 -65 43 -178 147 -175 161 3 13 -128 146 -143 146 -9 0 -277 228 -297
253 -12 14 -11 21 9 49 16 23 18 29 6 19 -41 -33 -60 -23 -162 79 -79 80 -96
102 -87 113 9 11 -1 24 -53 66 -39 32 -65 61 -65 72 0 12 -7 19 -19 19 -10 0
-81 62 -163 143 -131 128 -146 148 -163 200 -11 31 -23 57 -27 57 -4 0 -15
-11 -24 -25 l-16 -25 -113 108 c-143 135 -159 155 -164 204 -1 4 -10 8 -20 10
-28 5 -319 284 -317 305 1 11 -8 19 -26 23 -15 3 -72 43 -125 90 -54 47 -120
103 -146 125 -40 32 -47 43 -42 63 5 22 4 23 -25 17 -21 -5 -39 -1 -63 13 -43
27 -96 36 -131 23 -15 -6 -79 -60 -142 -119 -127 -119 -182 -155 -223 -146
-14 4 -55 22 -91 42 -177 96 -179 97 -260 97 -65 0 -88 -5 -170 -39 -113 -47
-190 -56 -273 -32 -54 16 -79 32 -248 154 -61 44 -79 52 -117 52 -44 0 -47 -3
-168 -122z m2136 -1443 c5 -14 14 -25 18 -25 5 0 33 -19 62 -42 56 -44 82 -44
88 1 2 12 8 19 13 15 6 -3 7 -35 3 -80 l-7 -74 49 -45 c68 -62 96 -72 141 -51
19 9 59 40 89 68 70 66 70 42 -1 -52 -31 -40 -54 -78 -52 -84 2 -6 13 -15 25
-21 12 -5 22 -12 22 -16 0 -3 21 -32 46 -65 56 -71 79 -117 71 -139 -5 -12
-21 -1 -74 54 -82 84 -132 105 -187 78 -27 -13 -44 -36 -89 -124 -68 -132 -83
-148 -133 -138 l-37 6 7 -43 c4 -24 27 -106 51 -183 49 -155 89 -359 105 -536
14 -151 0 -292 -44 -459 -19 -69 -53 -208 -76 -310 -39 -171 -46 -190 -89
-255 -25 -38 -73 -127 -106 -198 -56 -121 -61 -128 -95 -137 -20 -5 -81 -42
-136 -81 -111 -79 -173 -113 -224 -123 -19 -3 -68 -23 -109 -43 -81 -39 -152
-52 -201 -34 l-31 10 -36 -77 -35 -77 -28 35 -29 35 -30 -18 c-29 -17 -38 -17
-188 -2 -126 13 -169 22 -210 42 -28 13 -85 29 -125 35 -40 5 -87 12 -104 14
-21 3 -35 13 -42 29 -14 30 -30 31 -79 5 -42 -22 -35 -25 -133 56 -86 70 -110
84 -142 84 -27 -1 -47 -15 -70 -50 -9 -14 -41 -54 -72 -89 -62 -71 -92 -136
-82 -176 4 -15 25 -44 46 -65 38 -38 51 -72 30 -85 -16 -10 -75 21 -97 51 -18
24 -23 26 -36 15 -18 -14 -45 -4 -84 32 -27 24 -50 17 -59 -20 -7 -27 -20 -43
-38 -43 -14 0 4 72 34 135 25 51 27 61 14 68 -8 5 -30 21 -47 36 -64 56 -91
59 -127 17 -11 -14 -50 -23 -50 -11 0 2 9 29 21 60 12 31 19 59 16 62 -10 9
-52 -20 -105 -74 -61 -62 -88 -69 -78 -22 4 19 27 52 61 86 79 77 94 126 55
176 -27 34 -25 43 8 54 39 13 60 6 78 -29 l16 -30 19 31 c10 17 40 46 66 64
69 47 93 73 93 101 0 23 3 25 29 20 22 -5 36 0 62 24 30 27 33 36 37 95 5 82
1 100 -38 160 -93 140 -152 430 -154 752 -1 134 3 174 22 248 23 93 89 262
193 492 l62 140 158 155 c86 85 170 175 185 200 53 85 93 113 108 75 9 -25 72
-18 183 21 57 19 112 33 122 29 10 -3 31 0 47 6 16 6 69 15 119 20 63 6 98 15
116 28 l27 20 103 -35 c85 -29 115 -35 164 -32 33 2 67 8 76 12 13 5 21 -2 35
-31 14 -27 33 -45 67 -62 44 -21 52 -23 86 -11 34 11 44 10 86 -9 26 -11 87
-46 136 -77 70 -44 101 -58 140 -62 48 -4 51 -3 87 37 20 23 80 89 134 146 98
107 125 154 113 202 -9 38 -36 75 -51 69 -21 -8 -37 20 -24 43 14 28 28 26 40
-4z"/>
<path d="M3360 5057 c0 -36 4 -56 10 -52 13 8 13 75 0 95 -7 11 -10 -2 -10
-43z"/>
<path d="M3590 5055 c-16 -19 -7 -124 14 -163 l15 -27 1 41 c0 23 3 69 6 103
6 51 4 61 -8 61 -9 0 -21 -7 -28 -15z"/>
<path d="M3861 5003 c-21 -41 -41 -130 -40 -182 1 -55 1 -55 11 -21 12 44 46
220 42 220 -2 0 -7 -8 -13 -17z"/>
<path d="M2829 4995 c-37 -20 -51 -65 -43 -142 6 -60 8 -63 33 -63 15 0 37 7
49 16 20 14 22 24 22 98 0 50 -5 87 -12 94 -15 15 -17 15 -49 -3z"/>
<path d="M2687 4843 c-3 -5 -2 -15 2 -22 7 -10 10 -10 16 -1 4 6 3 16 -3 22
-5 5 -12 6 -15 1z"/>
<path d="M3372 4530 c-68 -34 -122 -89 -122 -123 0 -13 -6 -32 -14 -42 -12
-17 -18 -18 -71 -6 -53 12 -59 12 -69 -5 -109 -180 -154 -287 -162 -393 -3
-36 -17 -116 -30 -177 -13 -61 -24 -126 -24 -143 0 -42 38 -81 80 -81 64 0
100 32 225 198 45 60 89 108 100 110 32 6 62 40 111 124 25 44 55 83 67 89 13
6 32 23 42 40 11 16 57 59 103 96 45 36 92 81 103 100 19 30 19 38 9 88 -16
75 -56 115 -138 138 -91 25 -139 22 -210 -13z"/>
<path d="M2450 4455 c0 -63 1 -65 26 -65 25 0 26 2 19 37 -7 37 -31 93 -40 93
-3 0 -5 -29 -5 -65z"/>
<path d="M2569 4385 c-4 -5 -9 -31 -13 -57 -8 -54 10 -77 19 -25 8 39 3 97 -6
82z"/>
<path d="M2917 4341 c-4 -18 -7 -50 -6 -70 l1 -36 9 40 c6 22 9 54 7 70 l-3
30 -8 -34z"/>
<path d="M2547 4170 c3 -11 7 -20 9 -20 2 0 4 9 4 20 0 11 -4 20 -9 20 -5 0
-7 -9 -4 -20z"/>
<path d="M2537 4070 c-9 -35 -30 -470 -23 -477 3 -4 8 -4 10 -2 7 7 29 441 24
474 -4 30 -4 30 -11 5z"/>
<path d="M2766 4060 c-4 -14 -6 -55 -4 -90 3 -62 4 -63 16 -37 9 21 10 47 4
90 -7 50 -10 57 -16 37z"/>
<path d="M4290 4039 c0 -67 13 -159 23 -159 6 0 7 30 2 83 -7 88 -24 139 -25
76z"/>
<path d="M2621 3595 c-24 -209 -46 -391 -48 -405 -3 -14 -3 -22 1 -19 13 12
76 355 76 415 0 35 5 107 11 161 5 54 9 127 7 163 -2 48 -15 -37 -47 -315z"/>
<path d="M4027 3943 c-21 -40 -179 -190 -208 -198 -15 -4 -31 -22 -44 -48 -16
-33 -40 -56 -110 -103 -59 -40 -105 -80 -133 -117 -24 -32 -116 -131 -204
-222 -122 -126 -158 -169 -154 -183 10 -30 91 -109 135 -131 66 -34 152 -21
181 26 9 16 13 15 40 -16 l29 -34 6 29 c23 101 45 106 90 22 17 -31 34 -60 38
-65 12 -12 27 18 27 57 0 48 30 94 83 124 33 19 46 35 51 56 3 17 13 33 21 36
23 9 69 -13 86 -42 l16 -26 12 48 c7 27 27 103 46 169 43 151 77 345 79 455 1
73 -3 92 -24 135 -30 59 -44 65 -63 28z"/>
<path d="M4179 3943 c-8 -21 -6 -42 6 -88 14 -47 17 -99 16 -248 -1 -193 4
-251 20 -225 14 21 11 151 -3 142 -8 -5 -9 -2 -3 12 27 65 33 302 10 382 -18
58 -31 65 -46 25z"/>
<path d="M2200 3865 c0 -42 4 -64 10 -60 6 3 10 30 10 60 0 30 -4 57 -10 60
-6 4 -10 -18 -10 -60z"/>
<path d="M2757 3894 c-10 -10 -9 -116 2 -110 13 9 21 60 13 90 -4 15 -11 24
-15 20z"/>
<path d="M2740 3720 c0 -11 5 -20 10 -20 6 0 10 9 10 20 0 11 -4 20 -10 20 -5
0 -10 -9 -10 -20z"/>
<path d="M2200 3689 c0 -17 4 -28 10 -24 6 3 10 17 10 31 0 13 -4 24 -10 24
-5 0 -10 -14 -10 -31z"/>
<path d="M3360 3604 c0 -8 5 -12 10 -9 6 3 10 10 10 16 0 5 -4 9 -10 9 -5 0
-10 -7 -10 -16z"/>
<path d="M2500 3516 c0 -14 5 -26 10 -26 6 0 10 9 10 19 0 11 -4 23 -10 26 -6
4 -10 -5 -10 -19z"/>
<path d="M2880 3513 c0 -12 -3 -28 -6 -37 -3 -9 -1 -16 5 -16 16 0 26 49 12
63 -8 8 -11 6 -11 -10z"/>
<path d="M3180 3394 c0 -14 5 -24 11 -22 6 2 10 7 10 11 -1 4 -1 14 -1 22 0 8
-4 15 -10 15 -5 0 -10 -12 -10 -26z"/>
<path d="M4360 3262 c0 -6 -7 -92 -16 -191 -8 -100 -13 -187 -11 -194 12 -32
31 57 33 153 1 58 5 133 9 166 5 42 4 63 -4 68 -6 4 -11 3 -11 -2z"/>
<path d="M4570 3042 c0 -33 4 -51 10 -47 13 8 13 65 0 85 -7 11 -10 0 -10 -38z"/>
<path d="M3860 3030 c0 -18 4 -29 10 -25 6 3 10 15 10 25 0 10 -4 22 -10 25
-6 4 -10 -7 -10 -25z"/>
<path d="M2760 2969 c0 -17 4 -28 10 -24 6 3 10 17 10 31 0 13 -4 24 -10 24
-5 0 -10 -14 -10 -31z"/>
<path d="M3080 2940 c0 -22 5 -40 10 -40 6 0 10 18 10 40 0 22 -4 40 -10 40
-5 0 -10 -18 -10 -40z"/>
<path d="M3992 2963 c-9 -24 -9 -143 1 -168 15 -37 27 6 27 98 0 83 -11 111
-28 70z"/>
<path d="M2647 2884 c-11 -11 -8 -44 3 -44 15 0 24 30 13 41 -5 5 -12 6 -16 3z"/>
<path d="M3684 2785 c-18 -27 -12 -76 11 -95 16 -13 20 -2 28 78 6 49 -12 57
-39 17z"/>
<path d="M2998 2794 c-5 -4 -8 -25 -8 -48 0 -28 3 -37 11 -29 6 6 9 27 7 48
-2 20 -6 33 -10 29z"/>
<path d="M3435 2765 c-11 -47 -13 -240 -2 -251 15 -15 17 7 15 147 -3 119 -5
137 -13 104z"/>
<path d="M3541 2781 c-15 -10 -14 -26 9 -288 20 -220 38 -182 39 84 1 100 -2
188 -5 197 -7 18 -22 20 -43 7z"/>
<path d="M4364 2705 c-4 -8 -3 -23 1 -32 7 -17 8 -16 15 2 5 11 9 26 9 33 1
17 -18 15 -25 -3z"/>
<path d="M3020 2441 c0 -17 5 -31 10 -31 6 0 10 11 10 24 0 14 -4 28 -10 31
-6 4 -10 -7 -10 -24z"/>
</g>
</svg>
