<svg xmlns="http://www.w3.org/2000/svg" viewBox="0 0 72 72">
  <path d="M41.845 68.937c-1.973-2.214-3.185-2.827-4.37-2.21-.927.482-2.56.248-3.752-.538-1.643-1.09-2.067-1.09-1.916-.02.106.76-.76 2.38-1.924 3.6-2.394 2.51-2.437 2.49-8.103-3.98-1.472-1.68-3.553-3.81-4.624-4.73-1.07-.92-5.36-5.16-9.528-9.42L.048 43.9l1.895-2.59c1.043-1.42 2.343-2.663 2.888-2.757 1.27-.218 1.03-1.873-.35-2.45-1.37-.58-1.94-4.19-.69-4.405.54-.09.05-1.196-1.08-2.455-2-2.227-2-2.35-.02-4.52 1.12-1.223 2.42-2.683 2.9-3.248.48-.56 1.8-1.75 2.93-2.65 1.13-.894 2.45-2.095 2.93-2.665 2.46-2.933 4.58-5.28 5.98-6.625.86-.824 3.51-3.404 5.9-5.735 4.3-4.2 4.36-4.22 6.36-2.59 1.44 1.176 2.71 1.36 4.45.64 1.61-.664 2.93-.56 3.91.318 1.35 1.197 1.69 1.13 3.61-.7 2.06-1.96 2.22-1.944 5.08.51 1.62 1.39 3.75 3.383 4.72 4.43.98 1.045 2.55 2.59 3.49 3.43.94.84 2.51 2.39 3.49 3.44 2.73 2.943 6.55 6.64 10.46 10.14 2.84 2.537 2.96 3.28.83 5.214-1.01.917-1.53 2.608-1.28 4.143.25 1.552-.19 2.966-1.11 3.52-.89.543-1.09 1.143-.47 1.446.58.29 1.99 1.58 3.12 2.87L72 42.97l-3.558 4.185c-1.957 2.303-3.853 4.237-4.214 4.3-.36.06-1.098.65-1.64 1.306-2.314 2.8-4.658 5.41-6.402 7.12-1.027 1.01-2.284 2.36-2.793 3-.51.64-2.7 2.96-4.872 5.15L44.58 72l-2.73-3.064z" fill="#a9a9a9"/>
  <path d="M41.824 68.914c-1.956-2.195-3.166-2.804-4.35-2.188-.927.482-2.56.248-3.752-.537-1.39-.92-2.042-.98-1.912-.18.205 1.26-2.902 5.5-4.242 5.79-.418.09.085-1 1.12-2.42s1.273-1.92.53-1.1c-2.173 2.4-3.353 2.08-6.84-1.84-1.812-2.04-3.57-3.89-3.908-4.1-2.72-1.76-6.988-6.98-6.57-8.03.305-.77.153-.97-.374-.5C10.32 54.9 7.77 52.5 8.41 50.89c.3-.75.157-.97-.342-.52-.472.427-2.51-.91-4.527-2.975-3.42-3.494-3.57-3.86-2.23-5.36 1.33-1.494 1.35-1.45.33.59s-1 2.08.34.57c.8-.896 1.35-2.235 1.23-2.976-.12-.74.42-1.46 1.21-1.59 1.62-.28 1.66-1.86.08-2.53-1.37-.58-1.94-4.19-.69-4.41.54-.1.09-1.15-.99-2.35-1.55-1.73-1.76-2.52-1.04-3.8 1.58-2.79 4.31-3.61 6.85-2.07 2.12 1.29 2.09 1.21-.28-.77-2.56-2.14-2.58-2.24-.87-3.14.97-.51 2.51-1.84 3.42-2.95.91-1.11 2.48-2.84 3.49-3.84s2.6-2.75 3.52-3.87c1.47-1.79 2.67-2.55 3.55-2.24.14.05 1.48-1.55 2.98-3.56 2.52-3.4 2.8-3.53 4.69-2.29 1.11.73 1.86 1.73 1.66 2.22-.19.49.89.19 2.4-.66 2.23-1.26 3.13-1.31 4.69-.29 1.77 1.16 2.09 1.1 3.88-.71 1.88-1.89 2.08-1.87 4.93.58 1.64 1.4 3.77 3.41 4.75 4.45 1.6 1.71 3.93 3.94 6.76 6.45 2.15 1.91 3.73 4.59 3.2 5.44-.3.49-.12.53.42.08.53-.44 1.95.18 3.16 1.39 1.21 1.21 3.09 2.98 4.19 3.94 1.1.96 2.04 2.06 2.11 2.45.19 1.18-2.2 3.57-3.17 3.17-.49-.21-.5.9-.01 2.48.64 2.02.45 3.35-.65 4.55-.98 1.07-1.09 1.62-.3 1.51.68-.1 1.05.3.82.89-.24.59.07.99.68.89.61-.11.97.5.8 1.34-.16.84.22 1.75.86 2.02.75.31.82.08.19-.66-.66-.78-.57-.98.28-.62.97.4 1.06.9.38 2.09-.48.85-1.37 1.35-1.97 1.1-.6-.25-.76-.07-.35.41.84.98-3.42 5.93-5.39 6.27-.7.12-1.97-.23-2.82-.77s-.59-.14.59.9 1.71 1.96 1.19 2.05c-.52.09-1.71 1.08-2.63 2.21-.92 1.12-2.51 2.86-3.52 3.87-1.01 1-2.6 2.74-3.52 3.87-1.61 1.96-2.78 2.64-4.53 2.63-.44-.01-.5.35-.12.79.38.44-.26 1.7-1.41 2.79-2.04 1.94-2.16 1.91-4.8-1.05zm4.987-.77c-.03-.203-.9-.844-1.94-1.425-1.7-.96-1.73-.92-.3.43 1.51 1.41 2.38 1.8 2.24.99zm-19.66-.758c.52-.92.73-1.633.47-1.588-.26.045-.9.833-1.42 1.752-.52.918-.73 1.633-.47 1.588.26-.045.9-.833 1.42-1.752zm25.51-7.45c-.44-.776-.98-1.166-1.18-.867-.2.29-.02.96.42 1.47 1.19 1.4 1.69 1 .77-.61zm-28.99 4.03c.52-.918.73-1.633.47-1.588s-.9.833-1.42 1.752c-.52.918-.73 1.633-.47 1.588.27-.045.9-.833 1.42-1.752zm30.41-6.005c-1.09-.79-1.18-.66-.44.64.52.91 1.14 1.36 1.38 1.01.25-.35-.17-1.09-.93-1.64zm4.91-5.87c-1.09-.79-1.18-.66-.44.64.52.91 1.14 1.36 1.38 1.01.25-.35-.17-1.09-.93-1.64zM7.03 27.79c-.03-.186-1.154-1.01-2.497-1.832l-2.44-1.495 2.167 1.89c2.038 1.774 2.897 2.22 2.77 1.437zm6.643-7.207c-.033-.202-.907-.843-1.94-1.424-1.707-.96-1.735-.92-.3.43 1.506 1.41 2.37 1.8 2.24.99zm3.325-3.587c-.033-.203-.907-.844-1.942-1.424-1.705-.958-1.733-.917-.3.43 1.508 1.415 2.373 1.798 2.242.994z" fill="#909090"/>
  <path d="M43.197 70.503c-1.333-1.21-1.362-1.363-.17-.878 1.003.408 1.23.198.743-.69-.386-.7-1.175-1.076-1.755-.833-.58.243-1.417-.19-1.86-.966-.524-.913-1.424-1.083-2.565-.482-1.07.563-2.584.38-3.868-.465-1.39-.92-2.042-.98-1.912-.18.11.67-.63 2.21-1.642 3.42-2.775 3.32-3.69 2.96-1.102-.44l2.26-2.97-2.352 2.09c-1.86 1.66-2.68 1.9-3.92 1.15-1.34-.81-1.253-1.37.598-3.86l2.17-2.92-2.324 2.02c-3.027 2.63-3.146 2.63-4.767-.22-1.14-2.02-1.08-2.92.38-5.34l1.76-2.91-2.06 2.36c-1.13 1.29-2.26 2.77-2.5 3.27-.24.5-.79.31-1.21-.42-.47-.84.04-1.9 1.36-2.81 1.17-.81 2.04-2 1.94-2.63-.12-.71-.75-.42-1.66.76-2.31 3-3.29 2.51-1.24-.64 1.01-1.56 1.44-2.76.96-2.67-.48.09-1.56 1.33-2.39 2.75l-1.51 2.59-4.22-4.31-4.23-4.3 2.02-2.5c1.54-1.91 1.74-2.86.85-4.01-1.06-1.36-1.35-1.23-3.02 1.35-1.02 1.57-1.37 2.77-.79 2.67.59-.11 1.36-1.03 1.72-2.05.36-1.03 1.01-1.6 1.44-1.28.99.73-.72 3.91-2.24 4.17-.61.1-1.69-.23-2.39-.74-.96-.71-.79-1.48.65-3.11 1.89-2.13 1.83-7.07-.11-8.49-1.27-.93-1.52-4.16-.33-4.37.73-.12.61-.59-.37-1.46-1.22-1.09-1.15-1.23.47-.92 1.86.36 1.85.33-.19-1.39-1.16-.94-1.9-2.25-1.64-2.88.66-1.65 1.58-1.6 4.29.24 1.32.9 2.34 1.23 2.26.74-.08-.5-.89-1.34-1.8-1.89-.91-.55-1.46-1.26-1.24-1.58.23-.33 1.51.08 2.84.91 2.41 1.49 2.42 1.48.71-.21-.95-.94-2.21-1.97-2.8-2.27-.7-.36-.72-.62-.06-.74.55-.11 2.09.54 3.41 1.44 1.32.9 2.34 1.23 2.26.74-.08-.5-.89-1.34-1.8-1.89-.91-.55-1.47-1.26-1.24-1.58.22-.33 1.51.07 2.85.88s1.81.94 1.03.28c-3.3-2.77-1.42-7.04 1.94-4.44.93.72 1.31.94.83.48-1.39-1.31-1.52-4.07-.23-4.85.64-.39 1.81.04 2.6.96.79.92 1.96 1.56 2.6 1.43.64-.13.35-.55-.65-.94-2.64-1.02-2.75-3.96-.2-5.73 1.25-.87 2.26-1.13 2.34-.6.08.51 1.2 1.28 2.48 1.71 2.32.79 2.32.79.14-1.02-2.05-1.7-2.1-1.93-.85-3.73.79-1.15 1.4-1.46 1.52-.77.1.64 1.23 1.51 2.51 1.94 2.32.79 2.32.79.15-1.02-1.48-1.21-1.92-2.16-1.38-2.95.55-.79 1.27-.74 2.27.14.8.72 1.17 1.35.81 1.41-.35.06-.33.48.06.94.44.51 1.74.24 3.41-.7 2.18-1.23 3.09-1.27 4.66-.24 2.26 1.49 4.13 1.33 5.9-.51 1.02-1.05.91-1.11-.54-.33-1.47.8-1.61.7-.77-.52 1.04-1.5 2.47-.6 9.24 5.83 2.52 2.4 2.59 4.76.15 5.65-1.82.66-1.82.66-.17-1.17 1.63-1.8 1.62-1.82-.39-.91-2.29 1.03-2.26.97-1.13 2.94.66 1.15 1.18 1.15 2.68-.03 1.02-.8 2.1-2 2.38-2.65.38-.865.58-.9.71-.13.11.59 1.26 1.97 2.57 3.076l2.38 2.01-2.32 1.35c-1.27.74-2.26 1.69-2.19 2.113.07.42 1.15.06 2.4-.81 2.07-1.44 2.567-1.32 5.627 1.26l3.36 2.83-2.21 1.72c-3.02 2.36-2.68 2.82.62.85 2.21-1.32 2.91-1.38 3.8-.34.7.83.73 1.61.07 2.2-.56.5-.86 1.25-.66 1.65.2.4-.15.96-.78 1.25-.655.31-.61-.05.11-.85 1.11-1.22 1.09-1.3-.11-.72-.94.45-1.1 1.61-.53 3.77.58 2.17.37 3.62-.683 4.78-.85.93-1.01 1.59-.36 1.49.69-.1 1.02.54.82 1.565-.2 1 0 1.413.48.983.458-.41 1.568.11 2.47 1.17 1.47 1.71 1.46 1.8-.07.89-1.47-.87-1.602-.77-.95.73.428.966.23 2.4-.43 3.19-.993 1.184-1.51.956-2.963-1.32-.96-1.51-2.09-2.69-2.5-2.62-.41.07.16 1.36 1.26 2.87 1.57 2.15 1.81 3.09 1.09 4.35-.78 1.38-1.12 1.39-2.454.1-2.54-2.465-2.3-4.37.28-2.18l2.32 1.97-2.02-2.93c-1.66-2.404-2.22-2.67-3.11-1.475-.92 1.22-.81 1.84.69 3.91 1.15 1.58 1.41 2.52.75 2.63-.57.1-.7.57-.29 1.056 1.196 1.4-.445 1.24-2.793-.27-2.09-1.35-2.11-1.33-.67.62.91 1.233 1.113 2.07.525 2.17-.525.09-1.79-.94-2.81-2.28s-1.82-2.08-1.77-1.64c.13 1.18 2.806 4.62 4.006 5.16.57.26.15.93-.93 1.5-1.12.59-2.63.63-3.53.09-2.11-1.26-1.85-.19.34 1.42.96.71 1.32 1.35.79 1.44s-1.43.82-2.03 1.61c-2.18 2.91-6.49 6.937-6.63 6.2-.08-.42-1.19-1.71-2.48-2.87l-2.32-2.15 2.1 3.02c2.38 3.43 1.67 6.08-.98 3.67zm3.39-6.408c-1.126-1.253-2.205-2.05-2.398-1.77-.2.277.56 1.53 1.69 2.785s2.2 2.05 2.4 1.77c.19-.278-.57-1.53-1.7-2.785zm-17.055.117c-.147-1.212-.613-.784-2.588 2.375l-1.88 3.007 2.28-2.322c1.252-1.277 2.237-2.654 2.188-3.06zm19.143-1.536c-.814-1.242-1.864-2.192-2.334-2.11-.84.145-.11 1.387 2.02 3.42 1.79 1.696 1.92 1.134.32-1.31zm2.134-1.088c-.8-.584-1.25-.566-1.15.047.21 1.305 1.52 2.268 2.05 1.506.22-.32-.18-1.02-.91-1.55zm1.18-2.504c-.82-1.243-1.63-2.046-1.82-1.783-.37.54 2.21 4.24 2.87 4.12.23-.04-.25-1.09-1.06-2.33zm-25.96 1.663c-.06-.432-1.03.188-2.16 1.376s-2.02 2.513-1.97 2.945c.05.43 1.02-.19 2.15-1.377s2.01-2.51 1.96-2.94zM55 54.893c-2.14-2.238-2.325-1.352-.287 1.365.742.99 1.534 1.53 1.76 1.204.23-.328-.436-1.483-1.473-2.57zm-31.435 5.57c.77-1.238 1.103-2.2.74-2.137-.365.062-1.438 1.152-2.386 2.42-.95 1.27-1.28 2.23-.74 2.138.54-.093 1.61-1.183 2.38-2.42zm36.745-11.35c-.795-1.063-1.626-1.676-1.843-1.362-.22.32.255 1.44 1.053 2.51.8 1.07 1.63 1.68 1.847 1.36.218-.31-.257-1.44-1.054-2.5zM15.7 53.528l1.454-2.512-2.06 2.354c-1.133 1.295-2.22 2.5-2.414 2.677-.194.178.08.25.608.158.53-.09 1.615-1.296 2.414-2.677zm52.94-9.408c-.444-.777-.977-1.167-1.184-.868-.208.3-.02.965.42 1.48 1.19 1.397 1.688 1 .765-.612zm-55.047 9.017c.236-.593 0-1.005-.522-.915-.52.09-1.14.65-1.38 1.242-.23.594 0 1.005.53.915.53-.09 1.15-.65 1.38-1.25zm-1.377-3.03l1.453-2.51-2.06 2.353c-1.14 1.295-2.22 2.5-2.42 2.677-.2.178.08.25.6.158.53-.09 1.61-1.296 2.41-2.677zM10.43 48.65c1.033-1.287 1.635-2.52 1.336-2.738-.3-.22-1.368.872-2.375 2.425-2.19 3.39-1.58 3.576 1.04.313zm57.466-22.418c.886-.964 1.156-1.69.6-1.61-.557.078-1.737.93-2.623 1.895-.886.964-1.156 1.69-.6 1.61.556-.078 1.737-.93 2.623-1.895zm-3.488-3.42c.887-.964 1.157-1.69.6-1.61-.556.078-1.736.93-2.622 1.895-.887.964-1.156 1.69-.6 1.61.556-.078 1.736-.93 2.622-1.895zm-1.004-2.815c-.032-.2-.876.014-1.876.475-1 .462-1.752 1.243-1.672 1.737.08.49.92.28 1.877-.48.952-.76 1.704-1.54 1.67-1.74zm-1.378-1.968c1.113-1.4-1.803.22-3.114 1.73-1.506 1.73-1.472 1.75.59.26 1.202-.87 2.338-1.77 2.524-2zM7.03 27.79c-.03-.186-1.155-1.01-2.497-1.832L2.09 24.464l2.17 1.888c2.037 1.774 2.896 2.22 2.77 1.438zm51.51-13.18c1.112-1.398-1.804.224-3.115 1.733-1.506 1.733-1.472 1.748.59.265 1.202-.866 2.338-1.764 2.524-1.998zm-2.394-1.567c-.776-.57-3.43 1.313-3.266 2.318.082.5.96.27 1.953-.52.992-.79 1.583-1.59 1.313-1.79zm-42.02 4.323c-.807-.717-1.63-1.068-1.83-.78-.436.63 2.535 3.132 2.985 2.515.18-.23-.34-1.01-1.15-1.73zM18 14.18c-1.125-.914-2.202-1.437-2.394-1.16-.463.667 2.468 3.077 3.572 2.936.476-.06-.054-.86-1.18-1.775zm32.787-5.684c.927-.907.53-.937-1.483-.113-2.633 1.078-2.68 1.047-1.097-.735 1.626-1.834 1.62-1.848-.397-.94-2.073.934-2.43 1.878-1.08 2.867 1.048.77 2.587.36 4.057-1.08zm-29.463 2.096C20.2 9.677 19.07 9.23 18.814 9.6c-.255.368.466 1.15 1.604 1.74 2.923 1.51 3.3 1.2.906-.748zm3.21-.83c-.243-.115-1.402-.707-2.576-1.316-1.974-1.024-2.015-.996-.55.38.87.817 2.028 1.41 2.574 1.315.546-.09.794-.26.55-.38zM47.3 5.075c.926-.907.53-.937-1.484-.112-2.632 1.078-2.678 1.047-1.097-.736 1.62-1.833 1.62-1.847-.4-.94-2.08.935-2.43 1.88-1.08 2.868 1.05.77 2.59.36 4.06-1.08zM28.02 6.672c-.066-.408-1.182-1.185-2.48-1.726-2.35-.98-2.35-.977-.206.8 2.3 1.906 2.878 2.105 2.686.926zM.526 44.444c-.364-.427-.04-1.5.72-2.385.948-1.11 1.22-1.19.864-.27-.283.74-.097 1.27.413 1.18.51-.09 1.03-.74 1.153-1.46.124-.72.61-1.04 1.08-.72 1.092.74-.658 3.9-2.315 4.19-.68.12-1.55-.14-1.91-.56z" fill="#6f6f6f"/>
  <path d="M44.74 70.89c.153-.855-.79-2.502-2.093-3.66-1.985-1.762-2.226-1.803-1.486-.247.83 1.74.79 1.762-.7.355-.96-.91-2.17-1.15-3.07-.606-.85.515-2.37.31-3.57-.48-1.98-1.308-2.21-1.25-4.56 1.167-3.19 3.28-4.53 3.54-1.69.32 2.39-2.7 2.46-3.17.82-5.06-.96-1.12-1.3-1.04-2.58.54-.81 1-2.06 2.26-2.77 2.81-.71.54-.27-.26 1-1.79 1.59-1.92 2.02-3.27 1.39-4.37-1.12-1.96-2.08-1.87-3.32.32-.52.91-1.37 1.74-1.9 1.83-.53.09-.53-.58 0-1.51.61-1.07.58-1.61-.07-1.5-.56.1-1.33 1.02-1.71 2.05-.38 1.03-.78 1.4-.89.83-.11-.58.68-2.24 1.76-3.7 1.74-2.35 1.77-2.78.29-3.87-1.48-1.09-1.88-.93-3.62 1.42-1.08 1.46-2.01 2.33-2.07 1.94-.06-.39.89-1.97 2.11-3.52s1.69-2.74 1.04-2.64c-.65.09-1.29-.42-1.4-1.14-.12-.73-1.11-2.1-2.21-3.05s-2.79-2.59-3.77-3.65c-.97-1.05-2.4-2.4-3.17-2.99-.76-.59-1.25-1.76-1.09-2.6.17-.84-.2-1.75-.81-2.01-1.7-.72-1.79-3.38-.17-5.09 1.37-1.45 1.35-1.61-.51-3.12-1.07-.88-2.01-2-2.08-2.5-.07-.5.87.05 2.09 1.21s2.47 1.74 2.79 1.28c.32-.46-.4-1.68-1.59-2.73-1.96-1.71-1.89-1.71.83.03 1.64 1.06 2.91 1.43 2.81.83-.09-.6-.65-1.29-1.22-1.53-.58-.24-1.12-.88-1.21-1.43-.09-.54.65-.4 1.64.33s2.02.99 2.3.59c.28-.4-.65-1.39-2.05-2.21s-2.24-1.51-1.82-1.58c.42-.07 1.9.65 3.3 1.61 1.4.96 2.47 1.26 2.37.66-.1-.6-.65-1.29-1.22-1.53s-1.13-.95-1.23-1.56c-.1-.62.7-.32 1.77.65 1.96 1.79 2.78 1.47 6.63-2.53.19-.2-.64-1.21-1.84-2.25L14 13.32l2.29 1.39c1.29.79 2.92 1.01 3.75.51 1.85-1.11 1.76-1.57-.71-3.73-1.99-1.74-1.98-1.74.42-.27 2.3 1.406 2.52 1.37 4.62-.62 2.04-1.935 2.07-2.21.43-3.55-.98-.8-1.84-1.8-1.91-2.22-.07-.43.86.13 2.07 1.23l2.2 1.99 2.49-2.65c4.28-4.54 6.56-5 9.95-2.02 2.58 2.26 3.24 2.42 4.82 1.17 1-.8 2.13-1.22 2.51-.944.38.274-.21.92-1.32 1.43-2.18 1.01-2.3 1.55-.74 3.34.82.94 1.43.87 2.95-.34 1.06-.83 2.16-1.34 2.46-1.12.3.22-.29.84-1.32 1.39-2.04 1.08-2.15 1.71-.59 3.5.82.94 1.42.87 2.95-.34 1.05-.84 2.16-1.34 2.46-1.12.3.22-.29.84-1.32 1.38s-1.8 1.39-1.72 1.893c.25 1.52 1.956.72 3.63-1.7.87-1.26 1.65-1.88 1.73-1.39.08.49-.875 2.05-2.124 3.46-2.16 2.44-1.7 2.46 2.124.07 1.19-.75 1.544-.69 1.192.2-.278.69-1.12 1.37-1.87 1.5-.757.13-1.3.67-1.21 1.21.253 1.58 1.94.82 3.64-1.63.87-1.26 1.65-1.88 1.73-1.39.08.49-.878 2.05-2.126 3.46-2.197 2.48-1.6 2.43 2.57-.21.8-.51 1.07-.34.75.47-.278.69-1.12 1.36-1.87 1.49-.756.13-1.3.68-1.21 1.22.222 1.38 1.31 1.02 3.732-1.23l2.1-1.95-1.82 2.32c-1.11 1.4-1.5 2.89-.99 3.77 1.1 1.93 2.2 1.63 4.11-1.12 1.16-1.68 1.64-1.92 1.81-.89.12.77-.58 1.82-1.57 2.35-.99.52-1.73 1.37-1.65 1.89.095.59.79.44 1.83-.38 2.725-2.17 3.39-1.73 1.164.77-1.133 1.27-1.53 2.23-.87 2.13.657-.1 1.905-1.21 2.776-2.47 1.166-1.68 1.644-1.92 1.81-.89.127.77-.55 1.81-1.51 2.31-1.43.75-1.54 1.51-.61 4.32.87 2.65.782 3.68-.406 4.66-1.15.94-1.2 1.39-.21 1.81.93.39.75.84-.61 1.56-1.06.55-1.84 1.49-1.75 2.08.1.59-.13.85-.51.57-.375-.28-1.19.23-1.81 1.12-.97 1.4-.86 1.98.82 4.28 1.065 1.47 1.98 3.02 2.02 3.45.05.44-1.04-.72-2.41-2.58-2.226-3-2.63-3.18-3.69-1.65-.97 1.4-.91 2.1.31 3.75.823 1.12 2.03 2.31 2.68 2.66.76.4.65.57-.31.48-.82-.09-2.12-1.04-2.89-2.11-3.16-4.44-3.44-3.14-.53 2.45.53 1.02.075.74-1.01-.61s-2.364-2.1-2.84-1.67c-.814.73 1.662 3.56 4.334 4.95.66.34.63.63-.1.77-.64.12-2.05-.77-3.12-1.96-2.14-2.38-2.58-2.47-4.34-.85-.98.89-.72 1.6 1.46 4l2.64 2.91-3.19-2.61c-2.69-2.2-3.35-2.37-4.19-1.04-1.15 1.8.49 4.65 3.27 5.67 1.52.56 1.54.69.23 1.48-.83.5-1.52.37-1.64-.32-.292-1.63-4.77-5.75-4.54-4.18.1.69 1.065 2.33 2.14 3.65 1.866 2.28 1.82 2.27-.99-.12-1.62-1.38-2.9-2.2-2.84-1.82.23 1.48 3.17 5.28 3.976 5.14.47-.08.63.41.36 1.09-.3.76-1.47-.1-3.02-2.24-1.39-1.92-2.63-2.89-2.74-2.16-.12.73.7 2.33 1.8 3.57 1.52 1.69 1.79 2.56 1.1 3.55-.688.98-.846.92-.64-.25zM22.628 57.61c-.087-.537-.587-.903-1.11-.813-.522.09-.878.603-.79 1.14.087.54.586.905 1.11.815.52-.09.877-.603.79-1.14zm4.224 13.955c-.034-.21.56-.76 1.32-1.22.79-.48 1.198-.382.955.23-.407 1.025-2.145 1.782-2.274.99zm-1.582-5.363c1.154-1.304 2.46-2.42 2.904-2.476 1.137-.15-2.844 4.476-4.03 4.68-.534.092-.028-.9 1.126-2.204zm25.242-5.35c-.734-.98-1.12-1.817-.86-1.862.26-.045 1.076.72 1.81 1.698.735.98 1.122 1.817.86 1.862-.26.045-1.076-.72-1.81-1.698zM21.93 62.9c1.572-2.574 2.054-2.956 2.246-1.777.066.41-.743 1.517-1.798 2.462-1.912 1.714-1.914 1.71-.45-.686zm31.962-5.56c-.766-1.02-.996-1.924-.51-2.008.976-.168 2.807 2.56 2.253 3.36-.193.278-.977-.33-1.743-1.35zm7.6-6.946c-.796-.706-1.292-1.504-1.105-1.774.187-.27 1.002.28 1.81 1.22 1.75 2.035 1.33 2.364-.706.554zm-44.806 6.732c.52-.92 1.372-1.744 1.895-1.834.53-.09.54.575.01 1.507-.52.91-1.37 1.74-1.89 1.83-.53.09-.53-.58 0-1.51zm48.344-9.973c-.85-.99-1.37-2.048-1.158-2.354.213-.31 1.04.31 1.836 1.37 1.885 2.51 1.33 3.31-.678.98zm1.646-1.9c-1.442-2.314-1.428-2.375.194-.846.963.908 1.808 2.006 1.88 2.44.24 1.487-.517.904-2.074-1.593zm-53.94 9.178c1.572-2.57 2.054-2.95 2.246-1.77.066.41-.743 1.52-1.798 2.46-1.912 1.72-1.913 1.71-.45-.68zm55.62-10.86c-.85-.99-1.37-2.04-1.158-2.35.212-.3 1.038.32 1.836 1.38 1.885 2.52 1.33 3.32-.68.98zM10.273 53.75c-.084-.52.725-1.628 1.797-2.466 1.94-1.514 1.944-1.51.483.887-1.632 2.68-2.053 2.97-2.28 1.58zM9.25 51.02c1.57-2.574 2.053-2.955 2.245-1.777.066.41-.743 1.517-1.798 2.46-1.912 1.715-1.913 1.71-.448-.685zm-3.398-.93c.186-.233 1.314-1.18 2.508-2.104 1.984-1.54 2.08-1.525 1.13.17-.573 1.02-1.7 1.963-2.508 2.1s-1.316.064-1.13-.17zM3.65 47.65c-.984-.72-.953-1.32.13-2.502.783-.855 1.85-1.628 2.374-1.718.522-.09.23.62-.65 1.577s-1.273 1.98-.875 2.272c.39.29 1.38-.22 2.18-1.12 1.33-1.51 1.37-1.48.44.28-1.2 2.27-1.85 2.49-3.6 1.2zM.326 44.21c-.545-.64-.4-.818.395-.484.7.29 1.89-.185 2.67-1.057 1.27-1.43 1.31-1.4.39.35-1.19 2.25-2.24 2.61-3.44 1.19zm61.408-22.477c1.66-1.558 2.918-1.774 2.376-.41-.236.594-1.153 1.198-2.038 1.342-1.387.225-1.434.096-.338-.932zm-49.51-3.286c-1.434-1.348-1.406-1.388.3-.43 1.034.58 1.908 1.22 1.94 1.423.132.805-.733.42-2.24-.993zm1.903-1.082c-.807-.717-1.29-1.56-1.07-1.874.216-.31 1.055.02 1.862.74.8.72 1.28 1.56 1.07 1.88-.22.32-1.06-.01-1.87-.73zm36.456-8.62c.755-1.144 1.562-1.973 1.794-1.842.636.358-1.373 3.61-2.33 3.776-.46.07-.218-.8.536-1.94zm-34.666 4.26c-1.663-.896-1.78-1.17-.587-1.375.82-.14 2.13.31 2.912 1.006 1.81 1.607.394 1.83-2.325.368zm31.178-7.68c.755-1.144 1.562-1.973 1.794-1.842.63.36-1.38 3.61-2.34 3.776-.46.07-.22-.8.53-1.94zm-27.68 4.18c-1.56-.84-1.675-1.168-.634-1.798.78-.467 1.59-.06 2.06 1.034.44 1 .72 1.81.64 1.8-.08 0-1.01-.46-2.06-1.03zm2.92-1.618c-.794-.706-1.29-1.504-1.104-1.774.19-.27 1.01.28 1.82 1.22 1.75 2.035 1.33 2.364-.7.554zM42.27 3.692c.194-.19 1.103-1.137 2.02-2.106 1.542-1.63 1.59-1.616.64.174-.563 1.065-1.47 2.013-2.017 2.106-.546.094-.835.016-.642-.174zm-17.006.556c-1.254-2.19-.603-2.487 1.103-.503.81.94 1.086 1.778.615 1.86-.472.08-1.244-.53-1.718-1.357zm1.54-1.716c-.445-.525-.49-1.415-.1-1.98.42-.605.84-.23 1.028.917.36 2.22.21 2.39-.927 1.06z" fill="#454545"/>
  <path d="M42.69 67.128c-1.14-1.52-1.96-1.654-4.415-.728-2.12.798-3.443.756-4.455-.143-1.86-1.65-3.038-1.403-5.137 1.08-1.58 1.867-1.58 1.82-.022-.634l1.69-2.648-2.42-1.913c-3.48-2.753-4.45-3.7-7.75-7.627-1.62-1.93-3.36-3.893-3.87-4.358l-2.91-2.672c-1.09-1.004-2.78-2.69-3.76-3.747-.98-1.056-2.47-2.453-3.32-3.103-.96-.735-1.26-1.588-.8-2.25.46-.663 6.19 4.476 15.09 13.547 7.9 8.04 14.9 14.52 15.57 14.406 1.04-.18 14.04-12.977 26.76-26.353 3.31-3.48 3.86-3.782 3.71-2.028-.1 1.133-.54 2.123-.97 2.198s-1.7 1.445-2.81 3.043-2.06 2.633-2.11 2.302c-.05-.332-.63.086-1.28.928-2.6 3.375-3.66 4.47-4.42 4.602-.76.13-2.54 1.936-6.17 6.27-1.39 1.66-1.42 2.305-.2 4.055l1.45 2.08L48 61.52c-2.074-1.888-2.12-1.885-3.137.235-.57 1.183-1.42 1.99-1.89 1.79-1.2-.503-.754 1.503.79 3.56.71.948 1.077 1.76.816 1.805-.26.045-1.11-.757-1.88-1.783zm4.496-2.69c-.734-.978-1.12-1.816-.86-1.86s1.076.72 1.81 1.698c.735.98 1.122 1.817.86 1.862s-1.075-.72-1.81-1.7zm-22.512 2.4c.887-.963 2.012-1.835 2.5-1.937.49-.1.165.61-.72 1.57-.887.97-2.012 1.84-2.502 1.94-.49.1-.164-.6.722-1.57zm28.447-7.19c-1.43-1.347-1.4-1.387.3-.43 1.04.58 1.91 1.22 1.95 1.424.13.805-.73.42-2.24-.993zM22.4 62.175c.52-.92 1.16-1.707 1.42-1.752.262-.045.05.67-.47 1.588-.52.92-1.158 1.71-1.42 1.76-.26.05-.05-.67.47-1.59zm34.19-5.91c-2.098-1.866-1.144-2.286 1.16-.51 1.074.828 1.58 1.57 1.12 1.65s-1.484-.435-2.28-1.14zm-37.677 2.49c.52-.92 1.16-1.707 1.42-1.752.26-.045.05.67-.47 1.588-.52.92-1.16 1.71-1.42 1.76-.26.05-.05-.67.47-1.59zm44.447-9.913c-1.442-2.315-1.428-2.376.194-.847.963.908 1.808 2.006 1.88 2.44.24 1.487-.517.904-2.074-1.593zM16.5 57.538c.536-.78 1.254-1.212 1.596-.96.34.25-.097.887-.975 1.415-1.26.764-1.39.67-.62-.455zm44.416-7.59c-.437-.513-.626-1.18-.42-1.478.21-.3.74.092 1.187.868.92 1.612.422 2.01-.77.61zm-48.5 4.9c.52-.92 1.16-1.707 1.42-1.752.26-.045.05.67-.47 1.588-.52.92-1.16 1.707-1.42 1.752-.26.045-.05-.67.47-1.588zM64.24 46.36c-.436-.51-.625-1.18-.42-1.472.21-.3.743.09 1.188.868.925 1.613.426 2.01-.765.61zm-54.92 4.5c.772-1.24 1.616-2.29 1.88-2.33.26-.046-.158.93-.93 2.17-.77 1.237-1.615 2.287-1.877 2.332-.266.045.15-.93.922-2.17zm-3.09-3.99c.52-.92 1.157-1.704 1.42-1.75.26-.044.05.67-.47 1.59s-1.16 1.706-1.42 1.75c-.26.045-.05-.67.47-1.59zm-.64-10.373c-.824-.356-1.79-1.567-2.15-2.69s-.228-1.864.29-1.646 1.08-.29 1.246-1.14c.35-1.77 3.16-1.57 5.29.37 2.987 2.72-.752 6.81-4.676 5.11zm3.663-3.21c-.09-.54-.9-.996-1.81-1.02-1.005-.024-1.546.588-1.386 1.57.16.98.865 1.38 1.806 1.02.85-.326 1.474-1.03 1.386-1.57zm53.844-9.163c-.034-.21.56-.76 1.318-1.22.79-.48 1.2-.38.957.23-.408 1.025-2.147 1.78-2.276.99zm-7.626-4.07c-1.43-1.35-1.4-1.39.3-.432 1.79 1.006 2.43 1.72 1.65 1.857-.2.03-1.07-.61-1.94-1.43zm4.24.744c.2-.19 1.1-1.136 2.02-2.105 1.54-1.63 1.59-1.616.64.174-.56 1.064-1.47 2.01-2.01 2.105-.54.094-.83.016-.64-.174zm-51.8 3.92L5.74 22.83l2.44 1.49c2.294 1.41 2.983 2.1 2.223 2.23-.18.03-1.31-.794-2.5-1.833zm-3.44.09c-1.43-1.347-1.4-1.387.3-.43 1.04.58 1.91 1.22 1.94 1.424.13.804-.73.42-2.24-.995zm51.66-7.53c-.03-.21.56-.76 1.32-1.22.8-.48 1.2-.38.96.23-.4 1.026-2.14 1.783-2.27.99zm-48.34 3.94c-1.43-1.347-1.4-1.387.3-.43 1.04.58 1.91 1.22 1.94 1.424.14.81-.73.426-2.24-.99zm46.28-9.056c.76-1.14 1.57-1.97 1.8-1.84.64.36-1.37 3.616-2.33 3.78-.46.08-.21-.79.54-1.935zM12.23 18.45c-1.435-1.347-1.407-1.388.3-.43 1.033.58 1.907 1.22 1.94 1.424.13.804-.734.42-2.24-.994zm4.138.65c-.034-.21.56-.76 1.318-1.22.8-.48 1.2-.38.96.23-.4 1.026-2.14 1.783-2.27.99zm-2.783-2.13c-.42-.498-.063-.728.837-.54 1.75.367 2.167 1.016.8 1.25-.49.085-1.227-.236-1.633-.712zm6.11-1.46c-.033-.21.56-.76 1.32-1.22.79-.48 1.2-.382.956.23-.4 1.025-2.14 1.78-2.27.99zm-.812-4.24c-1.434-1.346-1.406-1.387.3-.43 1.79 1.005 2.424 1.72 1.642 1.856-.197.034-1.07-.608-1.94-1.425zm.37-1.853c-1.15-.617-1.63-1.2-1.07-1.295.56-.096 1.656.393 2.438 1.088 1.78 1.58 1.31 1.65-1.37.205zm24.65-7.23c.52-.92 1.16-1.706 1.42-1.75.26-.046.05.67-.47 1.587-.52.92-1.157 1.707-1.42 1.752-.26.045-.05-.67.47-1.588z" fill="#404040"/>
  <path d="M38.654 65.545c3.36-4.178 27.05-27.41 27.565-27.032.39.288.15 1.032-.54 1.652-2.16 1.94-4.37 4.212-5.31 5.458-.5.66-2.45 2.56-4.33 4.225s-3.83 3.565-4.33 4.224c-.5.66-1.77 2.025-2.82 3.035s-2.72 2.966-3.71 4.346c-.99 1.38-2.1 2.287-2.47 2.016-.37-.28-.59.02-.49.64.1.63-.74 1.3-1.88 1.49-1.13.19-1.91.16-1.72-.07zm-8.697-.802c.282-.407-.532-1.398-1.81-2.2-1.278-.805-1.98-1.52-1.557-1.594.42-.08-.28-.79-1.558-1.6s-2.092-1.8-1.81-2.2c.282-.41.014-.66-.596-.55-.61.1-1.185-.28-1.28-.86s-.797-1.53-1.565-2.12c-.76-.59-2.19-1.94-3.17-3-1.68-1.82-4.25-4.27-6.96-6.62-.66-.58-.9-1.1-.54-1.17.36-.06-.42-.79-1.74-1.62-1.32-.83-2.03-1.83-1.6-2.23.44-.4 5.44 4.02 11.11 9.81 5.67 5.79 11.58 11.78 13.14 13.3 2.51 2.46 2.64 2.81 1.14 3.07-.93.16-1.46-.04-1.18-.45zM4.905 32.75c-.31-1.9 2.794-2.823 4.592-1.363 1.632 1.323 1.624 1.357-.103.434-1.498-.8-2.118-.71-3.1.46-.707.85-1.296 1.05-1.39.47z"/>
  <path fill="#FFF" d="M53.533 22.624c-.9-1.39-2.544-2.796-3.36-.504-.587.843-.585 2.094-1.834 1.526.12 1.493 1 2.957 1.17 4.508.55 2.595.91 5.328.08 7.91-.53 1.743-.81 3.592-1.27 5.284-.96 1.205-1.65 2.896-2.17 4.07-1.13-.12-2.71 2.204-4.5 2.238-1.02.612-1.99 1.112-3.04.64-.5.397-.57 2.42-1.22.974-.18-.576-.64.706-1.38.098-.8.102-1.61-.196-2.66-.144-.86-.803-2.45-.717-3.2-.84-.45-1.59-1.02.697-1.82-.54-.98-.63-1.98-2.222-2.74-.5-.53.594-2.54 2.352-.8 3.257.91 1.23-.7.95-1.08-.03-.73.98-1.43-1.49-1.72.31-.88.89-.14-1.43.37-1.82-.91-.36-1.23-1.64-2.13-.52-1.22.41 1.06-2.19-.65-.98-.38.58-1.76 1.86-1.16.32.86-.86 2-1.59.8-2.74.77-.5 1.05-.33 1.4.45.36-1.28 1.94-1.1 1.82-2.3 1.52.61 1.75-2.21.72-2.98-1.17-2.32-1.37-5.01-1.48-7.58-.1-2.79 1.3-5.34 2.39-7.83.59-1.78 2.04-2.56 3.3-3.9.73-.45 1.4-2.81 2.02-1.57 1.39.17 2.04-.94 3.29-.65.95-.6 2.43.02 2.89-.82 1.22.45 2.79 1.25 3.78.43-.11.84 1.24 1.69 1.88 1.14 1.6 0 3.27 2.76 4.5 1.21.69-1.34 3.5-2.66 2.07-4.23-.96.33-.23-1.59.14-.21.67.04 1.46 1.79 1.65.25.67.22-.55 1.75.72 2.16.95 1.4 1.97-.04 2.72-.78.52.53-2.01 2.1-.62 2.22.24.66 1.91 1.91 1.04 2.52zm-3.025-2.97zm-10.64.618c-.448.898-.673 1.788-.56 2.8.225-.925.393-1.863.56-2.8zm-2.52-.338c-1.18-.656.103 3.6-.136 1.192.044-.397.09-.795.137-1.192zm-2.8.617c.45-.01.013-1.86 0-.71v.71zm9.745 11.6c.357-.25-.066-1.2-.015-1.73-.245-1.03-.164.54-.07.93l.085.81zM30.797 20.27zm14.448 15.233zm-1.68-3.305c-.186-.807-.413-1.698-.65-.402.646 1.638.235 3.275.304 5.045.43 1.92.14-1.94.24-2.73.05-1.58.04-1.16-.04.04l-.14 2.31c.35-1.41.28-2.82.28-4.25zM29.285 20.55c-.978.29-.506 1.39-.616 2.13.75.197 1.22-.225 1-.988-.13-.38.32-1.384-.4-1.14zM46.98 41.27c.447-.01.013-1.857 0-.71v.71zM27.66 22.51c.497-.103-.148-.858 0-.04v.04zm17.417 16.297c-.26-1.35-.227.636-.323 1.117l-.238 2.69c.815-1.142.03-2.433.504-3.47l.057-.337zM38.3 27.327c.04-1.147-.45-1.928-1.597-2.045-1.215-.703-2.99.58-3.21 1.148.063 1.434-1.154.617-1.5.58-.943 1.53-1.95 3.06-1.813 4.908-.145.898-.956 2.89-.252 3.32 1.61.798 2.562-2 3.754-3.04 1.024.065 1.1-1.975 2.19-2.344.57-1.1 2.047-1.498 2.43-2.527zm-11.815-4.144zm3.695 3.584c-.317.748-.363 2.814-.083.952.023-.32.052-.64.083-.96zM44.406 43.4zm-2.13-9.857c.373-.74-.595-3.57-.952-1.82-.7.737-1.94 2.057-2.26 1.79-.308 1.59-2.197 1.438-2.876 2.982-1.166 1.29-2.37 2.54-3.6 3.768.64 1.255 2.417 2.564 3.416 1.008.664.52.518 1.28.717.01.72-2.05 1.32 2.7 1.54.2-.08-1.02 1.26-1.39 1.3-1.46-.11-1.18 1.17-.83 1.32.03.34-1.72 1.04-3.17 1.19-4.94.08-.52.21-1.03.21-1.55zM45.02 44.63c.328-1.096-.34-.642-.065 0h.065zm-10.473-9.575c.484-.015-.122-.708 0-.03v.03zm-8.79-8.29c-.398-1.444-.675-1.717-.56-.182-.133.428.335.22.56.183zm13.83 13.497L24.32 52.35c5.088-4.03 10.177-8.06 15.267-12.088zm-13.16-12.207c.098-.388.124-1.93-.09-.88.068.234-.274.93.09.88zM39.7 41.1c.494-.073-.115-1.058 0-.15v.15zm1.57.17c-.743.62.117 3.524.007 1.286.03-.427.048-.86-.008-1.286zm-12.826-9.463c.384-.25.06-1.21.167-1.738-.36-.01-.07 1.13-.16 1.58v.15zm-2.24-2.464c.355-.152-.13-.9 0-.095v.095zm2.127 3.753c.36.04.17-1.764 0-1.084v1.084zm4.43 4.255c.5-.07-.11-1.06 0-.15v.16zm-4.53-3.41c.5-.1-.14-.86 0-.04v.04zm10.08 9.13c-1.19.27.07 2.31-.12.74l.06-.36.08-.38zm-8.58-6.67c.16-.92-.12-.99-.16-.03-.03.09.13.01.17.03zm-3.75-1.34l.28-5.21c-.4.25-.12 1.21-.26 1.74l-.18 3.48h.17zm5.55 2.86zm-4.26-2.35c-.23-.91.33-3.1.22-4.59.02-.8-.14 1.02-.2 1.44-.29 2.44-.57 4.87-.86 7.3l.84-4.14zm9.07 8.74c.22.99.13 3.39.45 3.5.25-1.06.05-2.22.11-3.32.06-.51.09-1.56-.56-1.03v.85zm-.89-1.23c-.29.88-.36 2.83-.05 3.25.14-1.07.09-2.16.05-3.25zm-12.83-10.1c.27-.1.3-1.35 0-1.45v1.46zm10.31 9.86zm-1.23-.61c.49-.11-.06-1.67 0-.44v.44zm-5.99-6.1c.5-.07-.11-1.06 0-.15v.16zm4.26 3.48zm1.74 3.53zm-9.07-8.79c.52-.28-.15-1.26 0-.11v.12zm8.24 9.75c.22-.76-.07-1.44-.13-.3.03.16-.16.38.14.3zm-2.37-2.38c.35-1.06-.35-.57-.06 0h.07zm5.88 6.78zm-7.17-5.65c.51-.32-.18-1.03 0 0v.01zm3.87 4.43c.52-.28-.15-1.26 0-.11v.12zm-4.82-3.25zm-2.68 0z"/>
</svg>
